<mxfile host="Electron" modified="2023-05-26T20:05:19.402Z" agent="Mozilla/5.0 (Windows NT 10.0; Win64; x64) AppleWebKit/537.36 (KHTML, like Gecko) draw.io/21.2.1 Chrome/112.0.5615.87 Electron/24.1.2 Safari/537.36" etag="gEh6iRJbhe3Lieam1hpX" version="21.2.1" type="device">
  <diagram name="Page-1" id="Z5ZmnJWc2x0XEgwWzdS5">
    <mxGraphModel dx="2126" dy="1714" grid="1" gridSize="10" guides="1" tooltips="1" connect="1" arrows="1" fold="1" page="1" pageScale="1" pageWidth="850" pageHeight="1100" math="0" shadow="0">
      <root>
        <mxCell id="0" />
        <mxCell id="1" parent="0" />
        <mxCell id="-_drWEQdkb8y01o_UxLm-1" value="Color" style="ellipse;whiteSpace=wrap;html=1;align=center;" parent="1" vertex="1">
          <mxGeometry x="800" y="-290" width="100" height="40" as="geometry" />
        </mxCell>
        <mxCell id="-_drWEQdkb8y01o_UxLm-2" value="Item" style="whiteSpace=wrap;html=1;align=center;" parent="1" vertex="1">
          <mxGeometry x="727" y="-210" width="100" height="40" as="geometry" />
        </mxCell>
        <mxCell id="-_drWEQdkb8y01o_UxLm-3" value="User" style="whiteSpace=wrap;html=1;align=center;" parent="1" vertex="1">
          <mxGeometry x="630" y="40" width="100" height="40" as="geometry" />
        </mxCell>
        <mxCell id="-_drWEQdkb8y01o_UxLm-4" value="Organization" style="whiteSpace=wrap;html=1;align=center;" parent="1" vertex="1">
          <mxGeometry x="160" y="50" width="100" height="40" as="geometry" />
        </mxCell>
        <mxCell id="-_drWEQdkb8y01o_UxLm-5" value="Dimensions" style="ellipse;whiteSpace=wrap;html=1;align=center;" parent="1" vertex="1">
          <mxGeometry x="880" y="-220" width="100" height="40" as="geometry" />
        </mxCell>
        <mxCell id="-_drWEQdkb8y01o_UxLm-6" value="" style="endArrow=none;html=1;rounded=0;" parent="1" source="-_drWEQdkb8y01o_UxLm-5" target="-_drWEQdkb8y01o_UxLm-2" edge="1">
          <mxGeometry relative="1" as="geometry">
            <mxPoint x="170" y="280" as="sourcePoint" />
            <mxPoint x="330" y="280" as="targetPoint" />
          </mxGeometry>
        </mxCell>
        <mxCell id="-_drWEQdkb8y01o_UxLm-7" value="" style="endArrow=none;html=1;rounded=0;" parent="1" source="-_drWEQdkb8y01o_UxLm-2" target="-_drWEQdkb8y01o_UxLm-1" edge="1">
          <mxGeometry relative="1" as="geometry">
            <mxPoint x="243" y="280" as="sourcePoint" />
            <mxPoint x="257" y="150" as="targetPoint" />
          </mxGeometry>
        </mxCell>
        <mxCell id="-_drWEQdkb8y01o_UxLm-8" value="Found Date" style="ellipse;whiteSpace=wrap;html=1;align=center;" parent="1" vertex="1">
          <mxGeometry x="620" y="-270" width="100" height="40" as="geometry" />
        </mxCell>
        <mxCell id="-_drWEQdkb8y01o_UxLm-9" value="" style="endArrow=none;html=1;rounded=0;" parent="1" source="-_drWEQdkb8y01o_UxLm-8" target="-_drWEQdkb8y01o_UxLm-2" edge="1">
          <mxGeometry relative="1" as="geometry">
            <mxPoint x="410" y="280" as="sourcePoint" />
            <mxPoint x="440" y="190" as="targetPoint" />
          </mxGeometry>
        </mxCell>
        <mxCell id="-_drWEQdkb8y01o_UxLm-10" value="Shape" style="ellipse;whiteSpace=wrap;html=1;align=center;" parent="1" vertex="1">
          <mxGeometry x="870" y="-170" width="100" height="40" as="geometry" />
        </mxCell>
        <mxCell id="-_drWEQdkb8y01o_UxLm-11" value="" style="endArrow=none;html=1;rounded=0;" parent="1" source="-_drWEQdkb8y01o_UxLm-10" target="-_drWEQdkb8y01o_UxLm-2" edge="1">
          <mxGeometry relative="1" as="geometry">
            <mxPoint x="170" y="280" as="sourcePoint" />
            <mxPoint x="330" y="280" as="targetPoint" />
            <Array as="points" />
          </mxGeometry>
        </mxCell>
        <mxCell id="-_drWEQdkb8y01o_UxLm-12" value="Inputs" style="shape=rhombus;perimeter=rhombusPerimeter;whiteSpace=wrap;html=1;align=center;" parent="1" vertex="1">
          <mxGeometry x="359" y="15" width="120" height="60" as="geometry" />
        </mxCell>
        <mxCell id="-_drWEQdkb8y01o_UxLm-13" value="Found Location" style="ellipse;whiteSpace=wrap;html=1;align=center;" parent="1" vertex="1">
          <mxGeometry x="890" y="-270" width="100" height="40" as="geometry" />
        </mxCell>
        <mxCell id="-_drWEQdkb8y01o_UxLm-14" value="" style="endArrow=none;html=1;rounded=0;" parent="1" source="-_drWEQdkb8y01o_UxLm-13" target="-_drWEQdkb8y01o_UxLm-2" edge="1">
          <mxGeometry relative="1" as="geometry">
            <mxPoint x="290" y="420" as="sourcePoint" />
            <mxPoint x="450" y="420" as="targetPoint" />
          </mxGeometry>
        </mxCell>
        <mxCell id="-_drWEQdkb8y01o_UxLm-15" value="" style="endArrow=none;html=1;rounded=0;" parent="1" source="-_drWEQdkb8y01o_UxLm-4" target="-_drWEQdkb8y01o_UxLm-12" edge="1">
          <mxGeometry relative="1" as="geometry">
            <mxPoint x="250" y="120" as="sourcePoint" />
            <mxPoint x="380" y="280" as="targetPoint" />
          </mxGeometry>
        </mxCell>
        <mxCell id="-_drWEQdkb8y01o_UxLm-16" value="1" style="resizable=0;html=1;whiteSpace=wrap;align=left;verticalAlign=bottom;direction=south;" parent="-_drWEQdkb8y01o_UxLm-15" connectable="0" vertex="1">
          <mxGeometry x="-1" relative="1" as="geometry">
            <mxPoint x="90" y="12" as="offset" />
          </mxGeometry>
        </mxCell>
        <mxCell id="-_drWEQdkb8y01o_UxLm-17" value="" style="resizable=0;html=1;whiteSpace=wrap;align=right;verticalAlign=bottom;" parent="-_drWEQdkb8y01o_UxLm-15" connectable="0" vertex="1">
          <mxGeometry x="1" relative="1" as="geometry" />
        </mxCell>
        <mxCell id="-_drWEQdkb8y01o_UxLm-18" value="Identifies" style="shape=rhombus;perimeter=rhombusPerimeter;whiteSpace=wrap;html=1;align=center;" parent="1" vertex="1">
          <mxGeometry x="630" y="-55" width="120" height="60" as="geometry" />
        </mxCell>
        <mxCell id="-_drWEQdkb8y01o_UxLm-19" value="" style="endArrow=none;html=1;rounded=0;" parent="1" source="-_drWEQdkb8y01o_UxLm-3" target="-_drWEQdkb8y01o_UxLm-18" edge="1">
          <mxGeometry relative="1" as="geometry">
            <mxPoint x="-60" y="150" as="sourcePoint" />
            <mxPoint x="20" y="150" as="targetPoint" />
          </mxGeometry>
        </mxCell>
        <mxCell id="-_drWEQdkb8y01o_UxLm-20" value="1" style="resizable=0;html=1;whiteSpace=wrap;align=left;verticalAlign=bottom;" parent="-_drWEQdkb8y01o_UxLm-19" connectable="0" vertex="1">
          <mxGeometry x="-1" relative="1" as="geometry">
            <mxPoint x="18" y="-20" as="offset" />
          </mxGeometry>
        </mxCell>
        <mxCell id="-_drWEQdkb8y01o_UxLm-21" value="" style="resizable=0;html=1;whiteSpace=wrap;align=right;verticalAlign=bottom;" parent="-_drWEQdkb8y01o_UxLm-19" connectable="0" vertex="1">
          <mxGeometry x="1" relative="1" as="geometry" />
        </mxCell>
        <mxCell id="-_drWEQdkb8y01o_UxLm-22" value="Last Name" style="ellipse;whiteSpace=wrap;html=1;align=center;" parent="1" vertex="1">
          <mxGeometry x="890" y="110" width="100" height="40" as="geometry" />
        </mxCell>
        <mxCell id="-_drWEQdkb8y01o_UxLm-23" value="" style="endArrow=none;html=1;rounded=0;" parent="1" source="-_drWEQdkb8y01o_UxLm-22" target="-_drWEQdkb8y01o_UxLm-69" edge="1">
          <mxGeometry relative="1" as="geometry">
            <mxPoint x="694" y="460" as="sourcePoint" />
            <mxPoint x="730" y="190" as="targetPoint" />
          </mxGeometry>
        </mxCell>
        <mxCell id="-_drWEQdkb8y01o_UxLm-24" value="" style="endArrow=none;html=1;rounded=0;exitX=0.743;exitY=0.073;exitDx=0;exitDy=0;exitPerimeter=0;" parent="1" source="-_drWEQdkb8y01o_UxLm-76" target="-_drWEQdkb8y01o_UxLm-3" edge="1">
          <mxGeometry relative="1" as="geometry">
            <mxPoint x="561.0999999999999" y="229.35999999999967" as="sourcePoint" />
            <mxPoint x="854" y="460" as="targetPoint" />
          </mxGeometry>
        </mxCell>
        <mxCell id="-_drWEQdkb8y01o_UxLm-25" value="First Name" style="ellipse;whiteSpace=wrap;html=1;align=center;" parent="1" vertex="1">
          <mxGeometry x="890" y="50" width="100" height="40" as="geometry" />
        </mxCell>
        <mxCell id="-_drWEQdkb8y01o_UxLm-26" value="" style="endArrow=none;html=1;rounded=0;" parent="1" source="-_drWEQdkb8y01o_UxLm-25" target="-_drWEQdkb8y01o_UxLm-69" edge="1">
          <mxGeometry relative="1" as="geometry">
            <mxPoint x="557" y="542" as="sourcePoint" />
            <mxPoint x="730" y="150" as="targetPoint" />
          </mxGeometry>
        </mxCell>
        <mxCell id="-_drWEQdkb8y01o_UxLm-27" value="Street" style="ellipse;whiteSpace=wrap;html=1;align=center;" parent="1" vertex="1">
          <mxGeometry x="250" y="255" width="100" height="40" as="geometry" />
        </mxCell>
        <mxCell id="-_drWEQdkb8y01o_UxLm-28" value="" style="endArrow=none;html=1;rounded=0;" parent="1" source="-_drWEQdkb8y01o_UxLm-27" target="-_drWEQdkb8y01o_UxLm-39" edge="1">
          <mxGeometry relative="1" as="geometry">
            <mxPoint x="350" y="130" as="sourcePoint" />
            <mxPoint x="510" y="130" as="targetPoint" />
          </mxGeometry>
        </mxCell>
        <mxCell id="-_drWEQdkb8y01o_UxLm-29" value="Name" style="ellipse;whiteSpace=wrap;html=1;align=center;" parent="1" vertex="1">
          <mxGeometry x="-10" y="40" width="80" height="30" as="geometry" />
        </mxCell>
        <mxCell id="-_drWEQdkb8y01o_UxLm-30" value="" style="endArrow=none;html=1;rounded=0;" parent="1" source="-_drWEQdkb8y01o_UxLm-4" target="-_drWEQdkb8y01o_UxLm-29" edge="1">
          <mxGeometry relative="1" as="geometry">
            <mxPoint x="250" y="180" as="sourcePoint" />
            <mxPoint x="410" y="180" as="targetPoint" />
          </mxGeometry>
        </mxCell>
        <mxCell id="-_drWEQdkb8y01o_UxLm-31" value="" style="endArrow=none;html=1;rounded=0;" parent="1" source="-_drWEQdkb8y01o_UxLm-90" target="-_drWEQdkb8y01o_UxLm-3" edge="1">
          <mxGeometry relative="1" as="geometry">
            <mxPoint x="658.8587599248426" y="240.50282986847515" as="sourcePoint" />
            <mxPoint x="649" y="530" as="targetPoint" />
          </mxGeometry>
        </mxCell>
        <mxCell id="-_drWEQdkb8y01o_UxLm-32" value="Email" style="ellipse;whiteSpace=wrap;html=1;align=center;" parent="1" vertex="1">
          <mxGeometry x="740" y="155" width="100" height="40" as="geometry" />
        </mxCell>
        <mxCell id="-_drWEQdkb8y01o_UxLm-33" value="Email" style="ellipse;whiteSpace=wrap;html=1;align=center;" parent="1" vertex="1">
          <mxGeometry x="-20" y="75" width="90" height="35" as="geometry" />
        </mxCell>
        <mxCell id="-_drWEQdkb8y01o_UxLm-34" value="" style="endArrow=none;html=1;rounded=0;" parent="1" source="-_drWEQdkb8y01o_UxLm-3" target="-_drWEQdkb8y01o_UxLm-32" edge="1">
          <mxGeometry relative="1" as="geometry">
            <mxPoint x="694" y="460" as="sourcePoint" />
            <mxPoint x="854" y="460" as="targetPoint" />
          </mxGeometry>
        </mxCell>
        <mxCell id="-_drWEQdkb8y01o_UxLm-35" value="" style="endArrow=none;html=1;rounded=0;" parent="1" source="-_drWEQdkb8y01o_UxLm-33" target="-_drWEQdkb8y01o_UxLm-4" edge="1">
          <mxGeometry relative="1" as="geometry">
            <mxPoint x="260" y="433" as="sourcePoint" />
            <mxPoint x="321" y="437" as="targetPoint" />
          </mxGeometry>
        </mxCell>
        <mxCell id="-_drWEQdkb8y01o_UxLm-36" value="" style="endArrow=none;html=1;rounded=0;" parent="1" source="-_drWEQdkb8y01o_UxLm-75" target="-_drWEQdkb8y01o_UxLm-4" edge="1">
          <mxGeometry relative="1" as="geometry">
            <mxPoint x="54.266067173236934" y="69.29959394395746" as="sourcePoint" />
            <mxPoint x="400" y="180" as="targetPoint" />
          </mxGeometry>
        </mxCell>
        <mxCell id="-_drWEQdkb8y01o_UxLm-37" value="City" style="ellipse;whiteSpace=wrap;html=1;align=center;" parent="1" vertex="1">
          <mxGeometry x="100" y="255" width="100" height="40" as="geometry" />
        </mxCell>
        <mxCell id="-_drWEQdkb8y01o_UxLm-38" value="" style="endArrow=none;html=1;rounded=0;" parent="1" source="-_drWEQdkb8y01o_UxLm-37" target="-_drWEQdkb8y01o_UxLm-39" edge="1">
          <mxGeometry relative="1" as="geometry">
            <mxPoint x="240" y="130" as="sourcePoint" />
            <mxPoint x="400" y="130" as="targetPoint" />
          </mxGeometry>
        </mxCell>
        <mxCell id="-_drWEQdkb8y01o_UxLm-39" value="Place" style="whiteSpace=wrap;html=1;align=center;" parent="1" vertex="1">
          <mxGeometry x="170" y="195" width="100" height="40" as="geometry" />
        </mxCell>
        <mxCell id="-_drWEQdkb8y01o_UxLm-40" value="Located in" style="shape=rhombus;perimeter=rhombusPerimeter;whiteSpace=wrap;html=1;align=center;" parent="1" vertex="1">
          <mxGeometry x="220" y="110" width="120" height="60" as="geometry" />
        </mxCell>
        <mxCell id="-_drWEQdkb8y01o_UxLm-41" value="" style="endArrow=none;html=1;rounded=0;" parent="1" source="-_drWEQdkb8y01o_UxLm-4" target="-_drWEQdkb8y01o_UxLm-40" edge="1">
          <mxGeometry relative="1" as="geometry">
            <mxPoint x="300" y="245" as="sourcePoint" />
            <mxPoint x="395" y="240" as="targetPoint" />
          </mxGeometry>
        </mxCell>
        <mxCell id="-_drWEQdkb8y01o_UxLm-42" value="1" style="resizable=0;html=1;whiteSpace=wrap;align=left;verticalAlign=bottom;" parent="-_drWEQdkb8y01o_UxLm-41" connectable="0" vertex="1">
          <mxGeometry x="-1" relative="1" as="geometry">
            <mxPoint y="40" as="offset" />
          </mxGeometry>
        </mxCell>
        <mxCell id="-_drWEQdkb8y01o_UxLm-43" value="" style="resizable=0;html=1;whiteSpace=wrap;align=right;verticalAlign=bottom;" parent="-_drWEQdkb8y01o_UxLm-41" connectable="0" vertex="1">
          <mxGeometry x="1" relative="1" as="geometry" />
        </mxCell>
        <mxCell id="-_drWEQdkb8y01o_UxLm-44" value="" style="endArrow=none;html=1;rounded=0;" parent="1" source="-_drWEQdkb8y01o_UxLm-39" target="-_drWEQdkb8y01o_UxLm-40" edge="1">
          <mxGeometry relative="1" as="geometry">
            <mxPoint x="340" y="290" as="sourcePoint" />
            <mxPoint x="200" y="250" as="targetPoint" />
          </mxGeometry>
        </mxCell>
        <mxCell id="-_drWEQdkb8y01o_UxLm-45" value="M" style="resizable=0;html=1;whiteSpace=wrap;align=left;verticalAlign=bottom;" parent="-_drWEQdkb8y01o_UxLm-44" connectable="0" vertex="1">
          <mxGeometry x="-1" relative="1" as="geometry">
            <mxPoint y="-20" as="offset" />
          </mxGeometry>
        </mxCell>
        <mxCell id="-_drWEQdkb8y01o_UxLm-46" value="" style="resizable=0;html=1;whiteSpace=wrap;align=right;verticalAlign=bottom;" parent="-_drWEQdkb8y01o_UxLm-44" connectable="0" vertex="1">
          <mxGeometry x="1" relative="1" as="geometry" />
        </mxCell>
        <mxCell id="-_drWEQdkb8y01o_UxLm-47" value="Zip code" style="ellipse;whiteSpace=wrap;html=1;align=center;" parent="1" vertex="1">
          <mxGeometry x="40" y="195" width="100" height="40" as="geometry" />
        </mxCell>
        <mxCell id="-_drWEQdkb8y01o_UxLm-48" value="" style="endArrow=none;html=1;rounded=0;" parent="1" source="-_drWEQdkb8y01o_UxLm-47" target="-_drWEQdkb8y01o_UxLm-39" edge="1">
          <mxGeometry relative="1" as="geometry">
            <mxPoint x="190" y="330" as="sourcePoint" />
            <mxPoint x="250" y="330" as="targetPoint" />
          </mxGeometry>
        </mxCell>
        <mxCell id="-_drWEQdkb8y01o_UxLm-49" value="Service type" style="whiteSpace=wrap;html=1;align=center;" parent="1" vertex="1">
          <mxGeometry x="30" y="-150" width="90" height="40" as="geometry" />
        </mxCell>
        <mxCell id="-_drWEQdkb8y01o_UxLm-50" value="has" style="shape=rhombus;perimeter=rhombusPerimeter;whiteSpace=wrap;html=1;align=center;" parent="1" vertex="1">
          <mxGeometry x="80" y="-90" width="120" height="60" as="geometry" />
        </mxCell>
        <mxCell id="-_drWEQdkb8y01o_UxLm-51" value="" style="endArrow=none;html=1;rounded=0;" parent="1" source="-_drWEQdkb8y01o_UxLm-49" target="-_drWEQdkb8y01o_UxLm-89" edge="1">
          <mxGeometry relative="1" as="geometry">
            <mxPoint x="470" y="-10" as="sourcePoint" />
            <mxPoint x="-10.126835457657762" y="-133.72415251674352" as="targetPoint" />
          </mxGeometry>
        </mxCell>
        <mxCell id="-_drWEQdkb8y01o_UxLm-52" value="Employee" style="whiteSpace=wrap;html=1;align=center;" parent="1" vertex="1">
          <mxGeometry x="370" y="-230" width="100" height="40" as="geometry" />
        </mxCell>
        <mxCell id="-_drWEQdkb8y01o_UxLm-53" value="Reported by" style="shape=rhombus;perimeter=rhombusPerimeter;whiteSpace=wrap;html=1;align=center;" parent="1" vertex="1">
          <mxGeometry x="400" y="-120" width="120" height="60" as="geometry" />
        </mxCell>
        <mxCell id="-_drWEQdkb8y01o_UxLm-54" value="" style="endArrow=none;html=1;rounded=0;" parent="1" source="-_drWEQdkb8y01o_UxLm-52" target="-_drWEQdkb8y01o_UxLm-53" edge="1">
          <mxGeometry relative="1" as="geometry">
            <mxPoint x="260" y="119" as="sourcePoint" />
            <mxPoint x="395" y="142" as="targetPoint" />
          </mxGeometry>
        </mxCell>
        <mxCell id="-_drWEQdkb8y01o_UxLm-55" value="1" style="resizable=0;html=1;whiteSpace=wrap;align=left;verticalAlign=bottom;" parent="-_drWEQdkb8y01o_UxLm-54" connectable="0" vertex="1">
          <mxGeometry x="-1" relative="1" as="geometry">
            <mxPoint x="20" y="60" as="offset" />
          </mxGeometry>
        </mxCell>
        <mxCell id="-_drWEQdkb8y01o_UxLm-56" value="" style="resizable=0;html=1;whiteSpace=wrap;align=right;verticalAlign=bottom;" parent="-_drWEQdkb8y01o_UxLm-54" connectable="0" vertex="1">
          <mxGeometry x="1" relative="1" as="geometry" />
        </mxCell>
        <mxCell id="-_drWEQdkb8y01o_UxLm-57" value="&amp;nbsp;Name" style="ellipse;whiteSpace=wrap;html=1;align=center;" parent="1" vertex="1">
          <mxGeometry x="359" y="-300" width="100" height="40" as="geometry" />
        </mxCell>
        <mxCell id="-_drWEQdkb8y01o_UxLm-58" value="" style="endArrow=none;html=1;rounded=0;" parent="1" source="-_drWEQdkb8y01o_UxLm-57" target="-_drWEQdkb8y01o_UxLm-52" edge="1">
          <mxGeometry relative="1" as="geometry">
            <mxPoint x="504" y="-126" as="sourcePoint" />
            <mxPoint x="460" y="-109" as="targetPoint" />
          </mxGeometry>
        </mxCell>
        <mxCell id="-_drWEQdkb8y01o_UxLm-59" value="Email" style="ellipse;whiteSpace=wrap;html=1;align=center;" parent="1" vertex="1">
          <mxGeometry x="240" y="-300" width="100" height="40" as="geometry" />
        </mxCell>
        <mxCell id="-_drWEQdkb8y01o_UxLm-60" value="" style="endArrow=none;html=1;rounded=0;" parent="1" source="-_drWEQdkb8y01o_UxLm-59" target="-_drWEQdkb8y01o_UxLm-52" edge="1">
          <mxGeometry relative="1" as="geometry">
            <mxPoint x="529" y="-192" as="sourcePoint" />
            <mxPoint x="433" y="-110" as="targetPoint" />
          </mxGeometry>
        </mxCell>
        <mxCell id="-_drWEQdkb8y01o_UxLm-61" value="" style="endArrow=none;html=1;rounded=0;" parent="1" source="-_drWEQdkb8y01o_UxLm-66" target="-_drWEQdkb8y01o_UxLm-52" edge="1">
          <mxGeometry relative="1" as="geometry">
            <mxPoint x="510" y="-150" as="sourcePoint" />
            <mxPoint x="443" y="-100" as="targetPoint" />
            <Array as="points" />
          </mxGeometry>
        </mxCell>
        <mxCell id="-_drWEQdkb8y01o_UxLm-62" value="" style="endArrow=none;html=1;rounded=0;" parent="1" source="-_drWEQdkb8y01o_UxLm-67" target="-_drWEQdkb8y01o_UxLm-52" edge="1">
          <mxGeometry relative="1" as="geometry">
            <mxPoint x="327.08709557973407" y="-163.27327206003815" as="sourcePoint" />
            <mxPoint x="453" y="-90" as="targetPoint" />
          </mxGeometry>
        </mxCell>
        <mxCell id="-_drWEQdkb8y01o_UxLm-63" value="Works at" style="shape=rhombus;perimeter=rhombusPerimeter;whiteSpace=wrap;html=1;align=center;" parent="1" vertex="1">
          <mxGeometry x="253" y="-100" width="120" height="60" as="geometry" />
        </mxCell>
        <mxCell id="-_drWEQdkb8y01o_UxLm-64" value="First Name" style="ellipse;whiteSpace=wrap;html=1;" parent="1" vertex="1">
          <mxGeometry x="340" y="-340" width="70" height="30" as="geometry" />
        </mxCell>
        <mxCell id="-_drWEQdkb8y01o_UxLm-65" value="Last Name" style="ellipse;whiteSpace=wrap;html=1;align=center;" parent="1" vertex="1">
          <mxGeometry x="430" y="-340" width="80" height="30" as="geometry" />
        </mxCell>
        <mxCell id="-_drWEQdkb8y01o_UxLm-66" value="Age" style="ellipse;whiteSpace=wrap;html=1;align=center;dashed=1;" parent="1" vertex="1">
          <mxGeometry x="520" y="-220" width="50" height="30" as="geometry" />
        </mxCell>
        <mxCell id="-_drWEQdkb8y01o_UxLm-67" value="EmployeeID" style="ellipse;whiteSpace=wrap;html=1;align=center;fontStyle=4;" parent="1" vertex="1">
          <mxGeometry x="220" y="-200" width="100" height="40" as="geometry" />
        </mxCell>
        <mxCell id="-_drWEQdkb8y01o_UxLm-68" value="" style="endArrow=none;html=1;rounded=0;" parent="1" source="-_drWEQdkb8y01o_UxLm-91" target="-_drWEQdkb8y01o_UxLm-52" edge="1">
          <mxGeometry relative="1" as="geometry">
            <mxPoint x="295.355339059317" y="-215.85786437627326" as="sourcePoint" />
            <mxPoint x="380" y="-170" as="targetPoint" />
            <Array as="points" />
          </mxGeometry>
        </mxCell>
        <mxCell id="-_drWEQdkb8y01o_UxLm-69" value="&amp;nbsp;Name" style="ellipse;whiteSpace=wrap;html=1;align=center;" parent="1" vertex="1">
          <mxGeometry x="787" y="90" width="83" height="30" as="geometry" />
        </mxCell>
        <mxCell id="-_drWEQdkb8y01o_UxLm-70" value="" style="endArrow=none;html=1;rounded=0;" parent="1" source="-_drWEQdkb8y01o_UxLm-3" target="-_drWEQdkb8y01o_UxLm-69" edge="1">
          <mxGeometry relative="1" as="geometry">
            <mxPoint x="680" y="190" as="sourcePoint" />
            <mxPoint x="789" y="170" as="targetPoint" />
            <Array as="points" />
          </mxGeometry>
        </mxCell>
        <mxCell id="-_drWEQdkb8y01o_UxLm-71" value="" style="endArrow=none;html=1;rounded=0;exitX=0.5;exitY=1;exitDx=0;exitDy=0;" parent="1" source="-_drWEQdkb8y01o_UxLm-64" target="-_drWEQdkb8y01o_UxLm-57" edge="1">
          <mxGeometry relative="1" as="geometry">
            <mxPoint x="500" y="-300" as="sourcePoint" />
            <mxPoint x="455" y="-258" as="targetPoint" />
          </mxGeometry>
        </mxCell>
        <mxCell id="-_drWEQdkb8y01o_UxLm-72" value="" style="endArrow=none;html=1;rounded=0;" parent="1" source="-_drWEQdkb8y01o_UxLm-65" target="-_drWEQdkb8y01o_UxLm-57" edge="1">
          <mxGeometry relative="1" as="geometry">
            <mxPoint x="500" y="-192" as="sourcePoint" />
            <mxPoint x="455" y="-150" as="targetPoint" />
            <Array as="points" />
          </mxGeometry>
        </mxCell>
        <mxCell id="-_drWEQdkb8y01o_UxLm-73" value="UserID" style="ellipse;whiteSpace=wrap;html=1;align=center;fontStyle=4;" parent="1" vertex="1">
          <mxGeometry x="800" y="20" width="70" height="30" as="geometry" />
        </mxCell>
        <mxCell id="-_drWEQdkb8y01o_UxLm-74" value="" style="endArrow=none;html=1;rounded=0;" parent="1" source="-_drWEQdkb8y01o_UxLm-3" target="-_drWEQdkb8y01o_UxLm-73" edge="1">
          <mxGeometry relative="1" as="geometry">
            <mxPoint x="680" y="175" as="sourcePoint" />
            <mxPoint x="737" y="175" as="targetPoint" />
            <Array as="points" />
          </mxGeometry>
        </mxCell>
        <mxCell id="-_drWEQdkb8y01o_UxLm-75" value="Phone Number" style="ellipse;shape=doubleEllipse;margin=3;whiteSpace=wrap;html=1;align=center;" parent="1" vertex="1">
          <mxGeometry y="-10" width="100" height="40" as="geometry" />
        </mxCell>
        <mxCell id="-_drWEQdkb8y01o_UxLm-76" value="Age" style="ellipse;whiteSpace=wrap;html=1;align=center;" parent="1" vertex="1">
          <mxGeometry x="530" y="110" width="80" height="40" as="geometry" />
        </mxCell>
        <mxCell id="-_drWEQdkb8y01o_UxLm-77" value="" style="endArrow=none;html=1;rounded=0;" parent="1" source="-_drWEQdkb8y01o_UxLm-78" target="-_drWEQdkb8y01o_UxLm-52" edge="1">
          <mxGeometry relative="1" as="geometry">
            <mxPoint x="510" y="-200" as="sourcePoint" />
            <mxPoint x="473" y="-153" as="targetPoint" />
            <Array as="points" />
          </mxGeometry>
        </mxCell>
        <mxCell id="-_drWEQdkb8y01o_UxLm-78" value="Date_of_birth" style="ellipse;whiteSpace=wrap;html=1;align=center;" parent="1" vertex="1">
          <mxGeometry x="495" y="-290" width="100" height="40" as="geometry" />
        </mxCell>
        <mxCell id="-_drWEQdkb8y01o_UxLm-79" value="has been" style="shape=rhombus;perimeter=rhombusPerimeter;whiteSpace=wrap;html=1;align=center;" parent="1" vertex="1">
          <mxGeometry x="760" y="-110" width="120" height="60" as="geometry" />
        </mxCell>
        <mxCell id="-_drWEQdkb8y01o_UxLm-80" value="Action" style="shape=ext;margin=3;double=1;whiteSpace=wrap;html=1;align=center;" parent="1" vertex="1">
          <mxGeometry x="920" y="-100" width="100" height="40" as="geometry" />
        </mxCell>
        <mxCell id="-_drWEQdkb8y01o_UxLm-81" value="" style="endArrow=none;html=1;rounded=0;" parent="1" source="-_drWEQdkb8y01o_UxLm-82" target="-_drWEQdkb8y01o_UxLm-80" edge="1">
          <mxGeometry relative="1" as="geometry">
            <mxPoint x="1039" y="-110" as="sourcePoint" />
            <mxPoint x="1039.41" y="-80" as="targetPoint" />
            <Array as="points" />
          </mxGeometry>
        </mxCell>
        <mxCell id="-_drWEQdkb8y01o_UxLm-82" value="Status" style="ellipse;whiteSpace=wrap;html=1;align=center;" parent="1" vertex="1">
          <mxGeometry x="940" y="-40" width="65" height="30" as="geometry" />
        </mxCell>
        <mxCell id="-_drWEQdkb8y01o_UxLm-83" value="" style="endArrow=none;html=1;rounded=0;" parent="1" source="-_drWEQdkb8y01o_UxLm-84" target="-_drWEQdkb8y01o_UxLm-2" edge="1">
          <mxGeometry relative="1" as="geometry">
            <mxPoint x="610" y="-110" as="sourcePoint" />
            <mxPoint x="646" y="-80" as="targetPoint" />
          </mxGeometry>
        </mxCell>
        <mxCell id="-_drWEQdkb8y01o_UxLm-84" value="ItemID" style="ellipse;whiteSpace=wrap;html=1;align=center;fontStyle=4;" parent="1" vertex="1">
          <mxGeometry x="600" y="-230" width="80" height="30" as="geometry" />
        </mxCell>
        <mxCell id="-_drWEQdkb8y01o_UxLm-85" value="" style="endArrow=none;html=1;rounded=0;" parent="1" source="-_drWEQdkb8y01o_UxLm-86" target="-_drWEQdkb8y01o_UxLm-4" edge="1">
          <mxGeometry relative="1" as="geometry">
            <mxPoint x="100" y="160" as="sourcePoint" />
            <mxPoint x="169" y="121" as="targetPoint" />
          </mxGeometry>
        </mxCell>
        <mxCell id="-_drWEQdkb8y01o_UxLm-86" value="OrganizationID" style="ellipse;whiteSpace=wrap;html=1;align=center;fontStyle=4;" parent="1" vertex="1">
          <mxGeometry x="10" y="115" width="100" height="40" as="geometry" />
        </mxCell>
        <mxCell id="-_drWEQdkb8y01o_UxLm-87" value="" style="endArrow=none;html=1;rounded=0;" parent="1" source="-_drWEQdkb8y01o_UxLm-39" target="-_drWEQdkb8y01o_UxLm-88" edge="1">
          <mxGeometry relative="1" as="geometry">
            <mxPoint x="360" y="267.5" as="sourcePoint" />
            <mxPoint x="430" y="290" as="targetPoint" />
          </mxGeometry>
        </mxCell>
        <mxCell id="-_drWEQdkb8y01o_UxLm-88" value="PlaceID" style="ellipse;whiteSpace=wrap;html=1;align=center;fontStyle=4;" parent="1" vertex="1">
          <mxGeometry x="290" y="195" width="100" height="40" as="geometry" />
        </mxCell>
        <mxCell id="-_drWEQdkb8y01o_UxLm-89" value="Name" style="ellipse;whiteSpace=wrap;html=1;align=center;fontStyle=4;" parent="1" vertex="1">
          <mxGeometry x="40" y="-210" width="70" height="30" as="geometry" />
        </mxCell>
        <mxCell id="-_drWEQdkb8y01o_UxLm-90" value="Phone Number" style="ellipse;whiteSpace=wrap;html=1;align=center;" parent="1" vertex="1">
          <mxGeometry x="620" y="150" width="99.86" height="40" as="geometry" />
        </mxCell>
        <mxCell id="-_drWEQdkb8y01o_UxLm-91" value="Phone Number" style="ellipse;whiteSpace=wrap;html=1;align=center;" parent="1" vertex="1">
          <mxGeometry x="210" y="-250" width="99.86" height="40" as="geometry" />
        </mxCell>
        <mxCell id="-_drWEQdkb8y01o_UxLm-92" value="" style="shape=link;html=1;rounded=0;" parent="1" source="-_drWEQdkb8y01o_UxLm-4" target="-_drWEQdkb8y01o_UxLm-63" edge="1">
          <mxGeometry relative="1" as="geometry">
            <mxPoint x="220" y="79" as="sourcePoint" />
            <mxPoint x="370.14" y="78.95" as="targetPoint" />
          </mxGeometry>
        </mxCell>
        <mxCell id="-_drWEQdkb8y01o_UxLm-93" value="1" style="resizable=0;html=1;whiteSpace=wrap;align=right;verticalAlign=bottom;" parent="-_drWEQdkb8y01o_UxLm-92" connectable="0" vertex="1">
          <mxGeometry x="1" relative="1" as="geometry">
            <mxPoint x="-10" y="10" as="offset" />
          </mxGeometry>
        </mxCell>
        <mxCell id="-_drWEQdkb8y01o_UxLm-94" value="" style="shape=link;html=1;rounded=0;exitX=0;exitY=1;exitDx=0;exitDy=0;" parent="1" source="-_drWEQdkb8y01o_UxLm-52" target="-_drWEQdkb8y01o_UxLm-63" edge="1">
          <mxGeometry relative="1" as="geometry">
            <mxPoint x="379" y="-128" as="sourcePoint" />
            <mxPoint x="350" y="-110" as="targetPoint" />
          </mxGeometry>
        </mxCell>
        <mxCell id="-_drWEQdkb8y01o_UxLm-95" value="N" style="resizable=0;html=1;whiteSpace=wrap;align=right;verticalAlign=bottom;" parent="-_drWEQdkb8y01o_UxLm-94" connectable="0" vertex="1">
          <mxGeometry x="1" relative="1" as="geometry">
            <mxPoint x="-5" y="-6" as="offset" />
          </mxGeometry>
        </mxCell>
        <mxCell id="-_drWEQdkb8y01o_UxLm-96" value="" style="shape=link;html=1;rounded=0;" parent="1" source="-_drWEQdkb8y01o_UxLm-49" target="-_drWEQdkb8y01o_UxLm-50" edge="1">
          <mxGeometry relative="1" as="geometry">
            <mxPoint x="160" y="-120" as="sourcePoint" />
            <mxPoint x="77" y="-40" as="targetPoint" />
          </mxGeometry>
        </mxCell>
        <mxCell id="-_drWEQdkb8y01o_UxLm-97" value="N" style="resizable=0;html=1;whiteSpace=wrap;align=right;verticalAlign=bottom;" parent="-_drWEQdkb8y01o_UxLm-96" connectable="0" vertex="1">
          <mxGeometry x="1" relative="1" as="geometry">
            <mxPoint x="-16" y="1" as="offset" />
          </mxGeometry>
        </mxCell>
        <mxCell id="-_drWEQdkb8y01o_UxLm-98" value="" style="shape=link;html=1;rounded=0;exitX=0.4;exitY=1;exitDx=0;exitDy=0;exitPerimeter=0;" parent="1" source="-_drWEQdkb8y01o_UxLm-2" target="-_drWEQdkb8y01o_UxLm-18" edge="1">
          <mxGeometry relative="1" as="geometry">
            <mxPoint x="665" y="-20.53" as="sourcePoint" />
            <mxPoint x="735" y="-20.53" as="targetPoint" />
          </mxGeometry>
        </mxCell>
        <mxCell id="-_drWEQdkb8y01o_UxLm-99" value="N" style="resizable=0;html=1;whiteSpace=wrap;align=right;verticalAlign=bottom;" parent="-_drWEQdkb8y01o_UxLm-98" connectable="0" vertex="1">
          <mxGeometry x="1" relative="1" as="geometry">
            <mxPoint as="offset" />
          </mxGeometry>
        </mxCell>
        <mxCell id="-_drWEQdkb8y01o_UxLm-100" value="" style="shape=link;html=1;rounded=0;entryX=1;entryY=0.5;entryDx=0;entryDy=0;exitX=0;exitY=0.5;exitDx=0;exitDy=0;" parent="1" source="-_drWEQdkb8y01o_UxLm-2" target="-_drWEQdkb8y01o_UxLm-53" edge="1">
          <mxGeometry relative="1" as="geometry">
            <mxPoint x="580" y="-65" as="sourcePoint" />
            <mxPoint x="570" y="25" as="targetPoint" />
          </mxGeometry>
        </mxCell>
        <mxCell id="-_drWEQdkb8y01o_UxLm-101" value="N" style="resizable=0;html=1;whiteSpace=wrap;align=right;verticalAlign=bottom;" parent="-_drWEQdkb8y01o_UxLm-100" connectable="0" vertex="1">
          <mxGeometry x="1" relative="1" as="geometry">
            <mxPoint y="-10" as="offset" />
          </mxGeometry>
        </mxCell>
        <mxCell id="-_drWEQdkb8y01o_UxLm-102" value="" style="shape=link;html=1;rounded=0;" parent="1" source="-_drWEQdkb8y01o_UxLm-4" target="-_drWEQdkb8y01o_UxLm-50" edge="1">
          <mxGeometry relative="1" as="geometry">
            <mxPoint x="160" y="80" as="sourcePoint" />
            <mxPoint x="304" y="30" as="targetPoint" />
          </mxGeometry>
        </mxCell>
        <mxCell id="-_drWEQdkb8y01o_UxLm-103" value="1" style="resizable=0;html=1;whiteSpace=wrap;align=right;verticalAlign=bottom;" parent="-_drWEQdkb8y01o_UxLm-102" connectable="0" vertex="1">
          <mxGeometry x="1" relative="1" as="geometry">
            <mxPoint y="20" as="offset" />
          </mxGeometry>
        </mxCell>
        <mxCell id="-_drWEQdkb8y01o_UxLm-104" value="" style="shape=link;html=1;rounded=0;exitX=0;exitY=1;exitDx=0;exitDy=0;" parent="1" source="-_drWEQdkb8y01o_UxLm-2" target="-_drWEQdkb8y01o_UxLm-12" edge="1">
          <mxGeometry relative="1" as="geometry">
            <mxPoint x="624" y="110" as="sourcePoint" />
            <mxPoint x="500" y="160" as="targetPoint" />
          </mxGeometry>
        </mxCell>
        <mxCell id="-_drWEQdkb8y01o_UxLm-105" value="N" style="resizable=0;html=1;whiteSpace=wrap;align=right;verticalAlign=bottom;" parent="-_drWEQdkb8y01o_UxLm-104" connectable="0" vertex="1">
          <mxGeometry x="1" relative="1" as="geometry">
            <mxPoint x="7" y="-7" as="offset" />
          </mxGeometry>
        </mxCell>
        <mxCell id="-_drWEQdkb8y01o_UxLm-106" value="" style="shape=link;html=1;rounded=0;" parent="1" source="-_drWEQdkb8y01o_UxLm-2" target="-_drWEQdkb8y01o_UxLm-79" edge="1">
          <mxGeometry relative="1" as="geometry">
            <mxPoint x="740" y="-61" as="sourcePoint" />
            <mxPoint x="810" y="-61" as="targetPoint" />
          </mxGeometry>
        </mxCell>
        <mxCell id="-_drWEQdkb8y01o_UxLm-107" value="1&amp;nbsp; &amp;nbsp;" style="resizable=0;html=1;whiteSpace=wrap;align=right;verticalAlign=bottom;" parent="-_drWEQdkb8y01o_UxLm-106" connectable="0" vertex="1">
          <mxGeometry x="1" relative="1" as="geometry">
            <mxPoint x="9" y="4" as="offset" />
          </mxGeometry>
        </mxCell>
        <mxCell id="-_drWEQdkb8y01o_UxLm-108" value="" style="shape=link;html=1;rounded=0;exitX=0;exitY=0.5;exitDx=0;exitDy=0;" parent="1" source="-_drWEQdkb8y01o_UxLm-80" target="-_drWEQdkb8y01o_UxLm-79" edge="1">
          <mxGeometry relative="1" as="geometry">
            <mxPoint x="870" y="14.519999999999996" as="sourcePoint" />
            <mxPoint x="940" y="14.519999999999996" as="targetPoint" />
          </mxGeometry>
        </mxCell>
        <mxCell id="-_drWEQdkb8y01o_UxLm-109" value="1" style="resizable=0;html=1;whiteSpace=wrap;align=right;verticalAlign=bottom;" parent="-_drWEQdkb8y01o_UxLm-108" connectable="0" vertex="1">
          <mxGeometry x="1" relative="1" as="geometry" />
        </mxCell>
        <mxCell id="-_drWEQdkb8y01o_UxLm-110" value="Name" style="ellipse;whiteSpace=wrap;html=1;align=center;" parent="1" vertex="1">
          <mxGeometry x="700" y="-310" width="100" height="40" as="geometry" />
        </mxCell>
        <mxCell id="-_drWEQdkb8y01o_UxLm-111" value="" style="endArrow=none;html=1;rounded=0;" parent="1" source="-_drWEQdkb8y01o_UxLm-2" target="-_drWEQdkb8y01o_UxLm-110" edge="1">
          <mxGeometry relative="1" as="geometry">
            <mxPoint x="805" y="-200" as="sourcePoint" />
            <mxPoint x="843" y="-241" as="targetPoint" />
          </mxGeometry>
        </mxCell>
      </root>
    </mxGraphModel>
  </diagram>
</mxfile>
